<svg width="45" height="45" viewBox="0 0 45 45" fill="none" xmlns="http://www.w3.org/2000/svg">
<path d="M23.4884 44.9708C17.2197 45.2803 11.2776 43.1316 6.43619 38.2413C2.57513 34.3479 0.459718 29.6123 0.0641528 24.1461C-0.0562365 22.4615 -0.0132403 20.7684 0.244737 19.0924C0.502714 17.4164 0.941276 15.792 1.56042 14.2193C2.17957 12.6464 2.97929 11.1681 3.94241 9.76722C4.90552 8.35769 6.02343 7.09429 7.27891 5.934C8.52581 4.78232 9.88449 3.79394 11.3635 2.95166C12.834 2.11799 14.3819 1.45619 16.0071 0.957707C17.6324 0.459218 19.3006 0.227162 20.9774 0.0294856C24.5031 -0.133813 27.9171 0.373271 31.1762 1.74842C35.4156 3.53611 38.8123 6.36374 41.3404 10.2055C43.6966 13.7895 44.9092 17.7602 44.9952 22.0404C45.0726 25.9166 44.2126 29.5864 42.3982 33.0071C40.5752 36.4363 38.0297 39.2124 34.7793 41.3353C31.5115 43.4583 27.9429 44.6356 23.4884 44.9708ZM23.2993 41.7478C23.4971 41.7478 23.6948 41.7651 23.8927 41.7393C24.3914 41.6878 24.8815 41.619 25.3804 41.5588C25.5093 41.5416 25.6383 41.533 25.7586 41.5073C26.0425 41.4557 26.3263 41.3955 26.61 41.3353C26.7562 41.3009 26.911 41.2666 27.0572 41.2322C27.2463 41.1893 27.4356 41.1548 27.6161 41.1033C27.9171 41.0174 28.2095 40.9227 28.5018 40.8196C28.8373 40.7079 29.1812 40.6048 29.5165 40.4673C29.8949 40.3125 30.2647 40.1406 30.6344 39.9688C30.9526 39.8226 31.2793 39.6766 31.5889 39.5047C32.0189 39.2726 32.4402 39.032 32.8444 38.7741C33.3088 38.4734 33.7645 38.1553 34.2117 37.8201C34.6502 37.4849 35.0717 37.1153 35.4844 36.7458C35.8112 36.4536 36.1122 36.1442 36.4131 35.8261C36.7485 35.4738 37.0752 35.1128 37.3934 34.7432C37.6772 34.408 37.9266 34.0471 38.1845 33.6947C38.3995 33.4024 38.5974 33.1017 38.7951 32.8008C38.9585 32.5517 39.1047 32.2937 39.2509 32.0359C39.3799 31.8211 39.5002 31.6062 39.6207 31.3828C39.7496 31.1248 39.87 30.8671 39.9904 30.6006C40.1194 30.3256 40.2397 30.0506 40.3602 29.7756C40.4547 29.5521 40.5236 29.32 40.6095 29.0966C40.7041 28.8474 40.8074 28.5981 40.8848 28.3403C40.9793 28.0308 41.0481 27.7128 41.1341 27.4035C41.1772 27.2402 41.2201 27.0769 41.263 26.905C41.3233 26.6729 41.3835 26.4322 41.4351 26.2001C41.4952 25.8735 41.5383 25.5556 41.5813 25.229C41.6414 24.7477 41.7361 24.2663 41.7447 23.7765C41.7619 22.7193 41.8221 21.6621 41.6759 20.6136C41.6071 20.1237 41.5554 19.6339 41.4781 19.144C41.4351 18.8346 41.3749 18.5165 41.3061 18.2158C41.2287 17.8806 41.1255 17.5454 41.0396 17.2188C41.0051 17.0898 40.9622 16.9609 40.9191 16.8321C40.8762 16.6688 40.8331 16.5055 40.7815 16.3422C40.6869 16.0585 40.5752 15.7749 40.4719 15.4913C40.429 15.3881 40.3859 15.2764 40.343 15.1733C40.257 14.9669 40.1623 14.7607 40.0678 14.5631C39.9818 14.3739 39.8958 14.1763 39.8012 13.9872C39.6895 13.7637 39.5605 13.5402 39.44 13.3082C39.3197 13.0847 39.2078 12.8527 39.0789 12.6378C38.9241 12.3886 38.7693 12.1393 38.606 11.8987C38.3136 11.469 38.0212 11.0392 37.703 10.6267C37.3676 10.1969 37.015 9.77581 36.6367 9.38045C36.0691 8.77024 35.4672 8.1858 34.8223 7.66153C34.5557 7.44666 34.2891 7.21461 34.0053 7.01694C33.6183 6.7419 33.2314 6.47546 32.8272 6.21763C32.5005 6.01135 32.1737 5.82227 31.8384 5.6332C31.5374 5.4613 31.2278 5.3066 30.9268 5.1519C30.686 5.03156 30.4367 4.91984 30.1873 4.80811C29.9637 4.71357 29.7315 4.61903 29.4994 4.53307C29.2843 4.44713 29.0607 4.36118 28.8373 4.28383C28.562 4.18929 28.2782 4.10335 27.9945 4.02599C27.6333 3.92286 27.2722 3.82832 26.9024 3.74237C26.7047 3.69081 26.4982 3.65643 26.3004 3.61346C25.9994 3.55328 25.6985 3.48453 25.3975 3.44156C24.9934 3.38999 24.5891 3.34702 24.185 3.31264C23.7722 3.27826 23.3595 3.23529 22.9468 3.23529C22.3877 3.22669 21.8375 3.23529 21.2784 3.26967C20.8055 3.29545 20.3325 3.36421 19.8596 3.41577C19.5414 3.45015 19.2318 3.49312 18.9222 3.54469C18.6557 3.59627 18.3978 3.66502 18.1397 3.73378C17.6926 3.84551 17.2454 3.95723 16.7982 4.07757C16.6607 4.11195 16.5231 4.16351 16.3855 4.20648C16.1447 4.29243 15.9039 4.37837 15.6632 4.47291C15.3536 4.59325 15.044 4.70497 14.7344 4.84248C14.3991 4.99719 14.0638 5.16049 13.7369 5.33238C13.2639 5.58163 12.7996 5.83087 12.3439 6.1059C11.7075 6.49265 11.097 6.93098 10.5122 7.39509C9.83289 7.93655 9.17075 8.51239 8.5774 9.157C8.22482 9.54376 7.88086 9.93051 7.54549 10.3259C7.3133 10.6009 7.08973 10.8931 6.87475 11.1853C6.66837 11.469 6.47919 11.7612 6.29001 12.0534C6.11802 12.3198 5.95463 12.5949 5.79125 12.8698C5.66226 13.0933 5.54186 13.3168 5.42148 13.5402C5.33549 13.6949 5.24949 13.8497 5.1721 14.013C5.0861 14.202 5.00011 14.3912 4.91412 14.5802C4.82814 14.7779 4.73353 14.9669 4.64754 15.1733C4.55296 15.4052 4.47557 15.6373 4.38957 15.8608C4.30358 16.1015 4.20039 16.3422 4.12299 16.5914C4.0284 16.8836 3.95961 17.193 3.88221 17.4852C3.83922 17.6399 3.80482 17.7946 3.76183 17.9579C3.70163 18.1813 3.64144 18.4048 3.58984 18.6283C3.52964 18.9205 3.49525 19.2128 3.45226 19.4964C3.39206 19.9175 3.31466 20.3386 3.27166 20.7684C3.22867 21.2926 3.21148 21.8254 3.19428 22.3584C3.18568 22.599 3.22007 22.8396 3.23727 23.089C3.25447 23.4585 3.25447 23.828 3.27166 24.1891C3.28027 24.3094 3.28887 24.4382 3.30607 24.5586C3.35767 24.9196 3.40926 25.2719 3.46945 25.633C3.51245 25.9166 3.54685 26.2087 3.60704 26.4924C3.68443 26.8534 3.78762 27.2057 3.88221 27.5581C3.95101 27.8073 4.01981 28.0566 4.0972 28.3058C4.13159 28.4175 4.16599 28.5207 4.20899 28.6324C4.28638 28.8731 4.36378 29.1138 4.44976 29.3544C4.48416 29.4661 4.52716 29.5778 4.57875 29.6896C4.66475 29.8959 4.75934 30.1022 4.85393 30.3084C4.93992 30.5061 5.01732 30.7038 5.1033 30.8929C5.2237 31.1248 5.35268 31.3569 5.47308 31.589C5.66226 31.9328 5.83425 32.2937 6.04922 32.6203C6.333 33.0759 6.64257 33.5142 6.95215 33.9525C7.3735 34.5456 7.82926 35.1042 8.33662 35.6285C8.80098 36.1098 9.26534 36.5911 9.76409 37.0295C10.3144 37.5021 10.8992 37.9318 11.4753 38.3701C11.7419 38.5679 12.0257 38.7484 12.3009 38.9288C12.5761 39.1007 12.8598 39.2554 13.1436 39.4102C13.3758 39.539 13.6166 39.668 13.8573 39.7883C14.1239 39.9173 14.3905 40.0461 14.6656 40.1665C14.8549 40.2524 15.044 40.3298 15.2333 40.4072C15.4739 40.5017 15.7148 40.5962 15.9642 40.6822C16.2135 40.7767 16.4715 40.8626 16.7208 40.94C17.0218 41.0345 17.3228 41.1119 17.6238 41.1893C18.0022 41.2838 18.3806 41.3783 18.7589 41.4643C18.9653 41.5073 19.1717 41.5502 19.378 41.576C19.7392 41.6276 20.1089 41.6619 20.4701 41.7049C20.7109 41.7307 20.9517 41.7823 21.1925 41.7823C21.889 41.7564 22.5941 41.7478 23.2993 41.7478Z" fill="#ED2225"/>
<path d="M27.9412 26.2108C27.9412 29.3978 27.9412 32.5933 27.9412 35.7803C27.9412 35.8834 27.9156 35.9606 27.8043 35.9951C27.5136 36.0895 27.2314 36.2012 26.9406 36.2956C26.6413 36.3902 26.3419 36.4761 26.0426 36.5619C25.8715 36.6136 25.7005 36.6565 25.5209 36.6908C25.2301 36.7423 24.9308 36.7853 24.64 36.8197C24.2296 36.8712 23.8275 36.9142 23.4171 36.9571C23.3573 36.9657 23.2974 36.9571 23.2376 36.9657C23.0579 36.9743 22.8868 36.9915 22.7073 37C22.6303 37 22.5534 37.0001 22.4764 36.9915C22.3737 36.9829 22.2712 36.9657 22.1685 36.9657C21.9205 36.9485 21.681 36.9485 21.433 36.9314C21.3903 36.9314 21.356 36.8798 21.3133 36.8626C21.339 36.8283 21.3474 36.7853 21.3817 36.7682C21.8264 36.519 22.2197 36.2012 22.6046 35.8748C23.0665 35.4796 23.4599 35.0329 23.802 34.5347C24.0243 34.2083 24.2381 33.8818 24.4262 33.5382C24.5887 33.2547 24.717 32.9541 24.8454 32.6534C24.9908 32.3012 25.119 31.9404 25.2301 31.5797C25.2985 31.3564 25.3328 31.1158 25.3755 30.8838C25.4354 30.566 25.5039 30.2482 25.5295 29.9217C25.5637 29.4493 25.5807 28.9769 25.5637 28.4957C25.5552 28.0921 25.5039 27.6969 25.4525 27.3018C25.4183 27.0698 25.3499 26.8465 25.29 26.6231C25.2131 26.3482 25.1361 26.0647 25.0335 25.7985C24.9565 25.5923 24.8624 25.3947 24.7684 25.1972C24.6657 24.991 24.563 24.7848 24.4348 24.5959C24.221 24.2781 24.0072 23.9515 23.7591 23.6509C23.5453 23.3761 23.306 23.1098 23.0494 22.8864C22.6389 22.5256 22.2113 22.1819 21.7666 21.8555C21.4416 21.6151 21.0909 21.4003 20.7403 21.1855C20.441 21.0052 20.1331 20.8505 19.8252 20.6959C19.5003 20.5326 19.1667 20.378 18.8418 20.2235C18.6535 20.1375 18.4483 20.0602 18.2517 19.9743C18.0036 19.8798 17.7641 19.7768 17.5162 19.6908C17.2852 19.6049 17.0543 19.5276 16.8234 19.4417C16.5669 19.3473 16.3188 19.2527 16.0623 19.1582C15.84 19.0724 15.609 18.995 15.3867 18.9006C15.1386 18.7975 14.8907 18.6858 14.6426 18.5655C14.3604 18.4194 14.0782 18.2648 13.8046 18.093C13.24 17.7409 12.7355 17.3028 12.3849 16.7272C12.2737 16.5382 12.2138 16.3148 12.1197 16.1087C12 15.8338 12 15.5332 12 15.2411C12 14.8975 12.0684 14.5711 12.2138 14.2533C12.4447 13.7464 12.7954 13.3427 13.2743 13.0592C13.5906 12.8703 13.9157 12.6984 14.2492 12.5782C14.8223 12.3806 15.4208 12.2861 16.0366 12.3291C16.3701 12.3548 16.7037 12.3806 17.0202 12.4579C17.3708 12.5438 17.7043 12.6898 18.0379 12.8273C18.4226 12.9819 18.7733 13.2224 19.0983 13.4802C19.2865 13.6262 19.4746 13.7894 19.6457 13.9612C20.039 14.3477 20.4153 14.7429 20.8002 15.1295C20.8857 15.2153 20.9797 15.3013 21.0738 15.3785C21.3731 15.6019 21.6212 15.5417 21.8777 15.3528C22.1856 15.1295 22.4251 14.8374 22.6303 14.5282C22.8356 14.2274 23.0322 13.9183 23.2204 13.6089C23.3573 13.3771 23.4684 13.1365 23.5796 12.896C23.6737 12.6898 23.7763 12.4837 23.8533 12.2689C23.9131 12.1229 23.9474 11.9683 23.9901 11.8136C24.0243 11.6934 24.0415 11.5731 24.0756 11.4528C24.1269 11.2553 24.0415 11.0749 23.9474 10.9203C23.6053 10.3619 23.1092 9.94097 22.5791 9.58878C22.177 9.3139 21.7495 9.07336 21.3219 8.84143C21.0054 8.67822 20.6634 8.55795 20.3297 8.41193C20.2785 8.38616 20.2101 8.38616 20.1588 8.36898C20.1245 8.36038 20.0818 8.32602 20.0818 8.30885C20.0818 8.28307 20.116 8.23154 20.1417 8.22294C20.2442 8.18858 20.3469 8.15421 20.4496 8.13704C21.433 7.99101 22.4165 7.98242 23.4085 8.01677C23.8361 8.03395 24.2637 8.06832 24.6914 8.13704C25.1446 8.20576 25.5893 8.30883 26.034 8.42051C26.4446 8.5236 26.8465 8.63526 27.2485 8.76412C27.4879 8.84143 27.7188 8.94452 27.9583 9.03901C28.1379 9.10773 28.3089 9.18504 28.4886 9.26235C28.5911 9.3053 28.5997 9.37403 28.5484 9.46852C28.3945 9.72622 28.3003 10.0097 28.2491 10.3104C28.1978 10.5938 28.1721 10.8773 28.1892 11.1608C28.2064 11.4357 28.2148 11.7191 28.2748 11.9854C28.4287 12.6383 28.7793 13.1708 29.395 13.4629C29.7115 13.6089 30.0535 13.7121 30.4127 13.7292C30.5068 13.7292 30.6009 13.7637 30.6865 13.7637C31.0712 13.7464 31.4647 13.755 31.841 13.6863C32.3797 13.5918 32.8587 13.3513 33.2179 12.9218C33.2948 12.8273 33.3461 12.8359 33.4145 12.9218C33.7481 13.3513 34.0987 13.755 34.4152 14.2017C34.6974 14.6054 34.9539 15.035 35.1934 15.4731C35.3901 15.8167 35.5611 16.1688 35.7237 16.5297C35.8776 16.8647 36.0144 17.2082 36.1427 17.5519C36.2795 17.9298 36.4163 18.3078 36.519 18.7029C36.6215 19.0809 36.6901 19.476 36.7669 19.8626C36.8355 20.2407 36.9209 20.6272 36.9466 21.0138C36.9893 21.7352 37.0064 22.4654 36.9979 23.1956C36.9893 23.7197 36.9123 24.2522 36.8525 24.7763C36.8183 25.0426 36.7414 25.3088 36.6901 25.5751C36.6472 25.7898 36.6045 26.0046 36.5531 26.2108C36.5019 26.3998 36.442 26.5888 36.3822 26.7691C36.3393 26.9066 36.2966 27.0441 36.2539 27.1815C36.1598 27.4391 36.0657 27.6969 35.963 27.9546C35.8862 28.1607 35.8006 28.3755 35.7065 28.5817C35.6296 28.7535 35.5354 28.9254 35.4499 29.0886C35.3388 29.3033 35.2277 29.5266 35.0993 29.7328C34.8769 30.1021 34.646 30.463 34.4152 30.8237C34.3297 30.9526 34.2441 31.0729 34.15 31.2016C34.133 31.2275 34.1159 31.2618 34.0816 31.279C34.0389 31.3047 33.9961 31.3219 33.9533 31.3391C33.9362 31.2876 33.9191 31.2361 33.9106 31.1846C33.9021 31.0729 33.9106 30.9526 33.9106 30.8409C33.9106 25.9789 33.9106 21.1169 33.9106 16.2462C33.9106 15.9541 33.9106 15.9369 33.6283 15.9799C33.2606 16.0315 32.9014 16.1087 32.5336 16.1516C32.0805 16.2118 31.6272 16.2462 31.1739 16.2977C30.8404 16.3321 30.4982 16.3665 30.1562 16.4008C29.9081 16.418 29.6516 16.4265 29.4036 16.4351C28.9419 16.4523 28.4886 16.4696 28.0267 16.4953C27.9924 16.4953 27.9497 16.5468 27.9412 16.5812C27.924 16.6499 27.9412 16.7186 27.9412 16.7874C27.9412 19.9141 27.9412 23.0582 27.9412 26.2108Z" fill="#ED2225"/>
<path d="M15.2149 33C14.6965 32.9444 14.1696 32.9072 13.6512 32.8238C13.3284 32.768 13.0054 32.6567 12.691 32.5361C12.4105 32.4341 12.1386 32.3135 11.8751 32.1744C11.3228 31.8775 10.8214 31.488 10.4135 30.9871C10.201 30.7182 10.0565 30.3935 9.88659 30.0782C9.75061 29.837 9.63165 29.5773 9.51267 29.3268C9.41919 29.1228 9.33421 28.9094 9.24922 28.7054C9.15575 28.4734 9.06227 28.2415 8.97729 28.0096C8.9263 27.8613 8.87531 27.7128 8.83282 27.5552C8.79882 27.4346 8.76483 27.314 8.72235 27.1934C8.67136 27.0079 8.61187 26.8317 8.55238 26.6462C8.50989 26.4977 8.4759 26.3586 8.4419 26.2102C8.39091 25.9783 8.34842 25.7464 8.30593 25.5052C8.24644 25.1621 8.18697 24.8281 8.13598 24.4849C8.11898 24.3922 8.11048 24.2901 8.10198 24.1974C8.07649 23.8913 8.034 23.5945 8.017 23.2884C8 22.871 8 22.4443 8 22.0269C8 21.8878 8 21.7393 8.017 21.6002C8.05949 21.1271 8.11048 20.6541 8.15297 20.1903C8.16147 20.144 8.16997 20.0883 8.19546 20.0511C8.23796 19.977 8.29743 19.9863 8.33992 20.0604C8.4589 20.246 8.57788 20.4408 8.72235 20.6077C8.96879 20.8952 9.21523 21.1921 9.49567 21.4425C9.8356 21.7579 10.201 22.0455 10.5664 22.3237C10.7959 22.5092 11.0423 22.6761 11.2888 22.8246C11.5862 23.0101 11.8921 23.1864 12.1981 23.3533C12.4615 23.5018 12.725 23.6315 12.9969 23.7614C13.2858 23.9006 13.5832 24.0212 13.8722 24.1418C14.1016 24.2437 14.3396 24.3366 14.5691 24.42C14.824 24.5221 15.079 24.6055 15.3339 24.7075C15.5974 24.8096 15.8693 24.9116 16.1327 25.0136C16.3536 25.0971 16.5661 25.1898 16.7785 25.2827C16.94 25.3569 17.1015 25.431 17.2545 25.5238C17.5434 25.6908 17.8409 25.867 18.1213 26.0525C18.6566 26.4143 19.1326 26.8594 19.4809 27.4439C19.6339 27.7035 19.7614 27.9819 19.8464 28.288C19.9314 28.6219 20.0079 28.9557 19.9994 29.3082C19.9908 29.6236 19.9399 29.9297 19.8549 30.2265C19.7699 30.5233 19.6595 30.7924 19.498 31.0427C19.3705 31.2376 19.2176 31.4045 19.0561 31.5807C18.7162 31.9518 18.3252 32.2301 17.8748 32.4064C17.484 32.5547 17.1015 32.7216 16.702 32.8145C16.3197 32.9072 15.9287 32.9165 15.5378 32.9535C15.4274 32.9628 15.3168 32.9535 15.2064 32.9535C15.2149 32.9721 15.2149 32.9814 15.2149 33Z" fill="#ED2225"/>
</svg>
